<svg width="1498.45625px" height="122px" xmlns="http://www.w3.org/2000/svg" viewBox="-499.228125 14 1498.45625 122" preserveAspectRatio="xMidYMid"><defs><filter id="editing-vintage" x="-100%" y="-100%" width="300%" height="300%"><feConvolveMatrix in="SourceGraphic" result="extrude" order="9,9" divisor="1" kernelMatrix="1,0,0,0,0,0,0,0,0,0,1,0,0,0,0,0,0,0,0,0,1,0,0,0,0,0,0,0,0,0,1,0,0,0,0,0,0,0,0,0,1,0,0,0,0,0,0,0,0,0,1,0,0,0,0,0,0,0,0,0,1,0,0,0,0,0,0,0,0,0,1,0,0,0,0,0,0,0,0,0,1"> </feConvolveMatrix><feFlood flood-color="#900" result="flood-extrude"></feFlood><feComposite operator="in" in="flood-extrude" in2="extrude" result="extrude-color"></feComposite><feOffset dx="5" dy="5" in="extrude-color" result="extrude-offset"></feOffset><feColorMatrix in="SourceGraphic" result="stroke" type="matrix" values="0 0 0 0 0 0 0 0 0 0 0 0 0 0 0 0 1 0 0 0 "></feColorMatrix><feColorMatrix in="SourceGraphic" result="fill" type="matrix" values="0 0 0 0 0 0 0 0 0 0 0 0 0 0 0 1 0 0 1 0 "></feColorMatrix><feConvolveMatrix in="stroke" result="inner-shadow" order="5,5" divisor="1" kernelMatrix="1 0 0 0 0 0 1 0 0 0 0 0 1 0 0 0 0 0 1 0 0 0 0 0 1 "></feConvolveMatrix><feOffset dx="1" dy="1" in="inner-shadow" result="offset"></feOffset><feComposite operator="in" in="offset" in2="SourceAlpha" result="comp"></feComposite><feFlood flood-color="#000" result="flood3"></feFlood><feComposite operator="in" in="flood3" in2="comp" result="comp2"></feComposite><feColorMatrix in="comp2" result="comp3" type="matrix" values="1 0 0 0 0 0 1 0 0 0 0 0 1 0 0 0 0 0 0.5 0 "></feColorMatrix><feFlood flood-color="#f00" result="flood1"></feFlood><feComposite operator="in" in="flood1" in2="fill" result="fill2"></feComposite><feFlood flood-color="#fff" result="flood2"></feFlood><feComposite operator="in" in="flood2" in2="stroke" result="stroke2"></feComposite><feMerge result="obj"><feMergeNode in="extrude-offset"></feMergeNode><feMergeNode in="fill2"></feMergeNode><feMergeNode in="comp3"></feMergeNode></feMerge><feConvolveMatrix in="SourceAlpha" result="shadow" order="9,9" divisor="1" kernelMatrix="1,0,0,0,0,0,0,0,0,0,1,0,0,0,0,0,0,0,0,0,1,0,0,0,0,0,0,0,0,0,1,0,0,0,0,0,0,0,0,0,1,0,0,0,0,0,0,0,0,0,1,0,0,0,0,0,0,0,0,0,1,0,0,0,0,0,0,0,0,0,1,0,0,0,0,0,0,0,0,0,1"></feConvolveMatrix><feOffset dx="15" dy="15" in="shadow" result="shadow-offset"></feOffset><feFlood result="flood-shadow"></feFlood><feComposite operator="in" in="flood-shadow" in2="shadow-offset" result="shadow-color"></feComposite><feMerge><feMergeNode in="shadow-color"></feMergeNode><feMergeNode in="obj"></feMergeNode></feMerge></filter></defs><g transform="translate(-9,-9)"><g filter="url(#editing-vintage)"><g transform="translate(-294.34993529319763, 107)"><path d="M28.42-9.86L28.42-9.86L28.42-9.86Q29.63-8.32 29.63-5.82L29.63-5.82L29.63-5.82Q29.63-2.37 27.07-0.54L27.07-0.54L27.07-0.54Q24.51 1.28 20.48 1.28L20.48 1.28L20.48 1.28Q18.18 1.28 14.66 0.77L14.66 0.77L14.66 0.77Q7.74-0.32 5.63-0.32L5.63-0.32L5.63-0.32Q3.52-0.32 2.69-0.22L2.69-0.22L2.69-0.22Q1.86-0.13 0.51 0L0.51 0L8.38-42.24L35.97-42.24L35.97-42.24Q35.97-38.34 34.08-36.29L34.08-36.29L34.08-36.29Q32.19-34.24 28.48-34.24L28.48-34.24L28.48-34.24Q24.77-34.24 20.99-35.97L20.99-35.97L19.01-24.77L30.40-24.77L30.40-24.77Q30.40-21.38 28.74-19.49L28.74-19.49L28.74-19.49Q27.07-17.60 24.29-17.60L24.29-17.60L24.29-17.60Q21.50-17.60 19.78-18.24L19.78-18.24L19.78-18.24Q18.05-18.88 17.86-19.07L17.86-19.07L15.55-6.98L15.55-6.98Q17.09-6.78 19.97-6.78L19.97-6.78L19.97-6.78Q24.90-6.78 28.42-9.86ZM56.06-2.69L56.06-2.69L56.06-2.69Q52.99 1.28 45.38 1.28L45.38 1.28L45.38 1.28Q41.41 1.28 38.53-1.12L38.53-1.12L38.53-1.12Q35.65-3.52 35.65-6.98L35.65-6.98L35.65-6.98Q35.65-8.90 35.84-9.86L35.84-9.86L40.13-32.64L53.12-33.92L48.45-9.22L48.45-9.22Q48.19-7.81 48.19-6.98L48.19-6.98L48.19-6.98Q48.19-3.26 50.43-3.26L50.43-3.26L50.43-3.26Q52.93-3.26 54.72-6.66L54.72-6.66L54.72-6.66Q55.30-7.74 55.55-9.15L55.55-9.15L60.10-32.64L72.70-33.92L67.97-8.96L67.97-8.96Q67.78-8 67.78-6.98L67.78-6.98L67.78-6.98Q67.78-5.95 68.35-4.83L68.35-4.83L68.35-4.83Q68.93-3.71 70.78-3.46L70.78-3.46L70.78-3.46Q70.40-1.92 69.06-0.90L69.06-0.90L69.06-0.90Q66.24 1.28 63.20 1.28L63.20 1.28L63.20 1.28Q60.16 1.28 58.37 0.19L58.37 0.19L58.37 0.19Q56.58-0.90 56.06-2.69ZM90.37-6.40L90.37-6.40L90.37-6.40Q90.37-8.13 91.26-12.48L91.26-12.48L94.66-29.76L90.88-29.76L91.14-31.68L91.14-31.68Q98.82-33.98 106.24-39.62L106.24-39.62L109.31-39.62L107.78-32.64L112.77-32.64L112.19-29.76L107.26-29.76L104-12.48L104-12.48Q103.17-8.51 103.17-7.17L103.17-7.17L103.17-7.17Q103.17-4.10 105.86-3.46L105.86-3.46L105.86-3.46Q105.22-1.28 102.91 0L102.91 0L102.91 0Q100.61 1.28 97.34 1.28L97.34 1.28L97.34 1.28Q94.08 1.28 92.22-0.77L92.22-0.77L92.22-0.77Q90.37-2.82 90.37-6.40ZM138.11-10.82L138.11-10.82L138.11-10.82Q139.71-9.73 139.71-7.33L139.71-7.33L139.71-7.33Q139.71-4.93 138.50-3.39L138.50-3.39L138.50-3.39Q137.28-1.86 135.30-0.83L135.30-0.83L135.30-0.83Q131.20 1.28 126.78 1.28L126.78 1.28L126.78 1.28Q122.37 1.28 119.78 0.32L119.78 0.32L119.78 0.32Q117.18-0.64 115.46-2.43L115.46-2.43L115.46-2.43Q112.06-5.82 112.06-12.03L112.06-12.03L112.06-12.03Q112.06-21.70 117.31-27.58L117.31-27.58L117.31-27.58Q122.94-33.92 132.74-33.92L132.74-33.92L132.74-33.92Q138.82-33.92 141.82-31.36L141.82-31.36L141.82-31.36Q144.06-29.44 144.06-26.30L144.06-26.30L144.06-26.30Q144.06-15.04 124.61-15.04L124.61-15.04L124.61-15.04Q124.35-13.38 124.35-11.97L124.35-11.97L124.35-11.97Q124.35-9.02 125.66-7.90L125.66-7.90L125.66-7.90Q126.98-6.78 129.41-6.78L129.41-6.78L129.41-6.78Q131.84-6.78 134.43-7.90L134.43-7.90L134.43-7.90Q137.02-9.02 138.11-10.82ZM125.06-17.79L125.06-17.79L125.06-17.79Q129.60-17.79 132.22-20.61L132.22-20.61L132.22-20.61Q134.85-23.30 134.85-27.58L134.85-27.58L134.85-27.58Q134.85-29.06 134.30-29.86L134.30-29.86L134.30-29.86Q133.76-30.66 132.67-30.66L132.67-30.66L132.67-30.66Q131.58-30.66 130.66-30.24L130.66-30.24L130.66-30.24Q129.73-29.82 128.77-28.42L128.77-28.42L128.77-28.42Q126.40-25.22 125.06-17.79ZM162.21-1.92L162.21-1.92L162.21-1.92Q160.70-3.58 160.03-6.21L160.03-6.21L160.03-6.21Q159.36-8.83 159.36-13.12L159.36-13.12L159.36-13.12Q159.36-17.41 160.83-21.31L160.83-21.31L160.83-21.31Q162.30-25.22 164.99-28.03L164.99-28.03L164.99-28.03Q170.50-33.92 179.58-33.92L179.58-33.92L179.58-33.92Q182.85-33.92 185.22-32.83L185.22-32.83L196.16-33.92L191.42-8.96L191.42-8.96Q191.23-8.19 191.23-6.78L191.23-6.78L191.23-6.78Q191.23-5.38 192.10-4.48L192.10-4.48L192.10-4.48Q192.96-3.58 194.24-3.46L194.24-3.46L194.24-3.46Q193.60-1.28 191.26 0L191.26 0L191.26 0Q188.93 1.28 186.30 1.28L186.30 1.28L186.30 1.28Q183.68 1.28 181.92 0.29L181.92 0.29L181.92 0.29Q180.16-0.70 179.65-2.37L179.65-2.37L179.65-2.37Q178.62-0.77 176.45 0.26L176.45 0.26L176.45 0.26Q174.27 1.28 171.36 1.28L171.36 1.28L171.36 1.28Q168.45 1.28 166.08 0.51L166.08 0.51L166.08 0.51Q163.71-0.26 162.21-1.92ZM175.71-27.90L175.71-27.90L175.71-27.90Q174.98-26.75 174.34-24.80L174.34-24.80L174.34-24.80Q173.70-22.85 172.64-17.63L172.64-17.63L172.64-17.63Q171.58-12.42 171.58-8.70L171.58-8.70L171.58-8.70Q171.58-4.99 172.16-3.90L172.16-3.90L172.16-3.90Q172.74-2.82 173.76-2.82L173.76-2.82L173.76-2.82Q175.81-2.82 177.31-4.77L177.31-4.77L177.31-4.77Q178.82-6.72 179.39-10.18L179.39-10.18L182.78-28.93L182.78-28.93Q181.44-30.08 179.87-30.08L179.87-30.08L179.87-30.08Q178.30-30.08 177.38-29.57L177.38-29.57L177.38-29.57Q176.45-29.06 175.71-27.90ZM245.70 1.28L245.70 1.28L245.70 1.28Q237.95 1.28 237.95-4.74L237.95-4.74L237.95-4.74Q237.95-7.36 239.07-12.45L239.07-12.45L239.07-12.45Q240.19-17.54 240.58-19.58L240.58-19.58L240.58-19.58Q241.47-24.26 241.47-25.73L241.47-25.73L241.47-25.73Q241.47-28.99 239.04-28.99L239.04-28.99L239.04-28.99Q237.44-28.99 235.90-26.78L235.90-26.78L235.90-26.78Q234.37-24.58 233.66-20.16L233.66-20.16L229.70 0L217.22 1.28L220.67-16.13L220.67-16.13Q221.25-19.01 221.76-22.27L221.76-22.27L221.76-22.27Q222.27-25.54 222.27-26.05L222.27-26.05L222.27-26.05Q222.27-28.99 220.10-28.99L220.10-28.99L220.10-28.99Q218.62-28.99 217.02-26.82L217.02-26.82L217.02-26.82Q215.42-24.64 214.53-20.16L214.53-20.16L210.62 0L198.02 1.28L204.74-32.64L215.17-33.92L214.08-27.46L214.08-27.46Q215.74-30.91 218.82-32.42L218.82-32.42L218.82-32.42Q221.89-33.92 226.69-33.92L226.69-33.92L226.69-33.92Q229.44-33.92 231.23-32.58L231.23-32.58L231.23-32.58Q233.02-31.23 233.60-29.06L233.60-29.06L233.60-29.06Q234.69-31.30 237.47-32.61L237.47-32.61L237.47-32.61Q240.26-33.92 243.68-33.92L243.68-33.92L243.68-33.92Q247.10-33.92 248.80-33.18L248.80-33.18L248.80-33.18Q250.50-32.45 251.52-31.23L251.52-31.23L251.52-31.23Q253.25-28.99 253.25-24.90L253.25-24.90L253.25-24.90Q253.25-20.86 251.52-12.48L251.52-12.48L251.52-12.48Q250.62-8.38 250.62-6.88L250.62-6.88L250.62-6.88Q250.62-5.38 251.49-4.48L251.49-4.48L251.49-4.48Q252.35-3.58 253.63-3.46L253.63-3.46L253.63-3.46Q252.99-1.28 250.78 0L250.78 0L250.78 0Q248.58 1.28 245.70 1.28ZM272.51 1.28L272.51 1.28L272.51 1.28Q258.43 1.28 258.43-11.97L258.43-11.97L258.43-11.97Q258.43-21.38 263.62-27.46L263.62-27.46L263.62-27.46Q269.12-33.92 278.66-33.92L278.66-33.92L278.66-33.92Q285.57-33.92 289.09-30.72L289.09-30.72L289.09-30.72Q292.61-27.52 292.61-20.80L292.61-20.80L292.61-20.80Q292.61-10.56 287.10-4.61L287.10-4.61L287.10-4.61Q281.73 1.28 272.51 1.28ZM274.18-26.56L274.18-26.56L274.18-26.56Q273.41-24.83 272.80-22.24L272.80-22.24L272.80-22.24Q272.19-19.65 271.42-15.55L271.42-15.55L271.42-15.55Q270.66-11.46 270.66-6.40L270.66-6.40L270.66-6.40Q270.66-4.74 271.20-3.65L271.20-3.65L271.20-3.65Q271.74-2.56 273.22-2.56L273.22-2.56L273.22-2.56Q274.69-2.56 275.62-3.26L275.62-3.26L275.62-3.26Q276.54-3.97 277.25-5.63L277.25-5.63L277.25-5.63Q278.53-8.58 279.55-14.05L279.55-14.05L279.55-14.05Q280.58-19.52 280.67-21.89L280.67-21.89L280.67-21.89Q280.77-24.26 280.77-26.02L280.77-26.02L280.77-26.02Q280.77-27.78 280.26-28.93L280.26-28.93L280.26-28.93Q279.74-30.08 278.30-30.08L278.30-30.08L278.30-30.08Q276.86-30.08 275.90-29.18L275.90-29.18L275.90-29.18Q274.94-28.29 274.18-26.56ZM290.75 8.26L290.75 8.26L290.75 8.26Q295.68 2.94 295.68-3.71L295.68-3.71L295.68-3.71Q295.68-5.76 294.98-7.68L294.98-7.68L294.98-7.68Q295.74-8.19 297.28-8.54L297.28-8.54L297.28-8.54Q298.82-8.90 299.97-8.90L299.97-8.90L299.97-8.90Q302.78-8.90 304.45-7.39L304.45-7.39L304.45-7.39Q306.11-5.89 306.11-3.26L306.11-3.26L306.11-3.26Q306.11-0.64 305.09 1.47L305.09 1.47L305.09 1.47Q304.06 3.58 302.34 5.18L302.34 5.18L302.34 5.18Q298.62 8.64 293.50 8.64L293.50 8.64L293.50 8.64Q292.48 8.64 290.75 8.26ZM351.23-20.61L364.16-21.76L364.16-21.76Q359.55-11.65 359.55 0.06L359.55 0.06L359.55 0.06Q357.82 1.28 355.30 1.28L355.30 1.28L355.30 1.28Q352.77 1.28 351.17 0.10L351.17 0.10L351.17 0.10Q349.57-1.09 349.25-2.30L349.25-2.30L349.25-2.30Q347.65-0.64 345.06 0.32L345.06 0.32L345.06 0.32Q342.46 1.28 339.71 1.28L339.71 1.28L339.71 1.28Q336.96 1.28 334.56 0.38L334.56 0.38L334.56 0.38Q332.16-0.51 330.30-2.50L330.30-2.50L330.30-2.50Q326.21-6.85 326.21-15.10L326.21-15.10L326.21-15.10Q326.21-27.90 333.06-35.58L333.06-35.58L333.06-35.58Q340.10-43.52 352.58-43.52L352.58-43.52L352.58-43.52Q361.22-43.52 364.29-39.04L364.29-39.04L364.29-39.04Q365.25-37.63 365.25-35.94L365.25-35.94L365.25-35.94Q365.25-34.24 364.51-32.80L364.51-32.80L364.51-32.80Q363.78-31.36 362.62-30.21L362.62-30.21L362.62-30.21Q359.87-27.65 356.48-27.65L356.48-27.65L356.48-27.65Q355.14-27.65 353.86-28.10L353.86-28.10L353.86-28.10Q354.11-30.02 354.11-32.26L354.11-32.26L354.11-32.26Q354.11-34.50 353.95-35.52L353.95-35.52L353.95-35.52Q353.79-36.54 353.41-37.38L353.41-37.38L353.41-37.38Q352.58-39.10 350.75-39.10L350.75-39.10L350.75-39.10Q348.93-39.10 346.91-37.15L346.91-37.15L346.91-37.15Q344.90-35.20 343.30-32L343.30-32L343.30-32Q339.78-24.83 339.78-16.19L339.78-16.19L339.78-16.19Q339.78-12.22 341.31-9.41L341.31-9.41L341.31-9.41Q342.98-6.34 345.92-6.34L345.92-6.34L345.92-6.34Q346.94-6.34 347.87-6.85L347.87-6.85L347.87-6.85Q348.80-7.36 349.18-7.74L349.18-7.74L351.23-20.61ZM370.08-1.92L370.08-1.92L370.08-1.92Q368.58-3.58 367.90-6.21L367.90-6.21L367.90-6.21Q367.23-8.83 367.23-13.12L367.23-13.12L367.23-13.12Q367.23-17.41 368.70-21.31L368.70-21.31L368.70-21.31Q370.18-25.22 372.86-28.03L372.86-28.03L372.86-28.03Q378.37-33.92 387.46-33.92L387.46-33.92L387.46-33.92Q390.72-33.92 393.09-32.83L393.09-32.83L404.03-33.92L399.30-8.96L399.30-8.96Q399.10-8.19 399.10-6.78L399.10-6.78L399.10-6.78Q399.10-5.38 399.97-4.48L399.97-4.48L399.97-4.48Q400.83-3.58 402.11-3.46L402.11-3.46L402.11-3.46Q401.47-1.28 399.14 0L399.14 0L399.14 0Q396.80 1.28 394.18 1.28L394.18 1.28L394.18 1.28Q391.55 1.28 389.79 0.29L389.79 0.29L389.79 0.29Q388.03-0.70 387.52-2.37L387.52-2.37L387.52-2.37Q386.50-0.77 384.32 0.26L384.32 0.26L384.32 0.26Q382.14 1.28 379.23 1.28L379.23 1.28L379.23 1.28Q376.32 1.28 373.95 0.51L373.95 0.51L373.95 0.51Q371.58-0.26 370.08-1.92ZM383.58-27.90L383.58-27.90L383.58-27.90Q382.85-26.75 382.21-24.80L382.21-24.80L382.21-24.80Q381.57-22.85 380.51-17.63L380.51-17.63L380.51-17.63Q379.46-12.42 379.46-8.70L379.46-8.70L379.46-8.70Q379.46-4.99 380.03-3.90L380.03-3.90L380.03-3.90Q380.61-2.82 381.63-2.82L381.63-2.82L381.63-2.82Q383.68-2.82 385.18-4.77L385.18-4.77L385.18-4.77Q386.69-6.72 387.26-10.18L387.26-10.18L390.66-28.93L390.66-28.93Q389.31-30.08 387.74-30.08L387.74-30.08L387.74-30.08Q386.18-30.08 385.25-29.57L385.25-29.57L385.25-29.57Q384.32-29.06 383.58-27.90ZM406.66-3.07L406.66-3.07L414.59-44.80L427.58-46.08L425.60-36.29L425.60-36.29Q424.90-33.28 424-31.17L424-31.17L424-31.17Q425.41-32.96 428.48-33.66L428.48-33.66L428.48-33.66Q429.38-33.92 430.46-33.92L430.46-33.92L430.46-33.92Q436.42-33.92 439.68-30.30L439.68-30.30L439.68-30.30Q442.94-26.69 442.94-19.71L442.94-19.71L442.94-19.71Q442.94-10.62 437.76-4.93L437.76-4.93L437.76-4.93Q432.19 1.28 422.08 1.28L422.08 1.28L422.08 1.28Q415.10 1.28 409.86-1.02L409.86-1.02L409.86-1.02Q408-1.86 406.66-3.07ZM422.91-22.40L419.52-3.65L419.52-3.65Q420.86-2.50 422.53-2.50L422.53-2.50L422.53-2.50Q424.19-2.50 425.15-3.14L425.15-3.14L425.15-3.14Q426.11-3.78 426.82-5.06L426.82-5.06L426.82-5.06Q428.74-8.51 430.27-19.07L430.27-19.07L430.27-19.07Q430.72-22.08 430.72-25.09L430.72-25.09L430.72-25.09Q430.72-28.10 430.05-29.06L430.05-29.06L430.05-29.06Q429.38-30.02 428.10-30.02L428.10-30.02L428.10-30.02Q424.19-30.02 422.91-22.40L422.91-22.40ZM462.14-3.52L462.14-3.52L462.14-3.52Q460.16 1.28 453.82 1.28L453.82 1.28L453.82 1.28Q450.56 1.28 448.51-0.96L448.51-0.96L448.51-0.96Q446.78-2.94 446.78-4.93L446.78-4.93L446.78-4.93Q446.78-10.11 449.15-20.22L449.15-20.22L451.52-32.64L464.51-33.92L460.61-13.70L460.61-13.70Q459.52-8.96 459.52-7.30L459.52-7.30L459.52-7.30Q459.52-3.65 462.14-3.52ZM452.67-41.54L452.67-41.54L452.67-41.54Q452.67-44.03 454.75-45.38L454.75-45.38L454.75-45.38Q456.83-46.72 459.84-46.72L459.84-46.72L459.84-46.72Q462.85-46.72 464.67-45.38L464.67-45.38L464.67-45.38Q466.50-44.03 466.50-41.54L466.50-41.54L466.50-41.54Q466.50-39.04 464.48-37.76L464.48-37.76L464.48-37.76Q462.46-36.48 459.46-36.48L459.46-36.48L459.46-36.48Q456.45-36.48 454.56-37.76L454.56-37.76L454.56-37.76Q452.67-39.04 452.67-41.54ZM465.86-3.78L465.86-3.78L465.86-3.78Q465.86-6.21 467.68-7.52L467.68-7.52L467.68-7.52Q469.50-8.83 472.19-8.83L472.19-8.83L472.19-8.83Q474.88-8.83 476.58-7.52L476.58-7.52L476.58-7.52Q478.27-6.21 478.27-3.78L478.27-3.78L478.27-3.78Q478.27-1.34 476.38 0L476.38 0L476.38 0Q474.50 1.34 471.81 1.34L471.81 1.34L471.81 1.34Q469.12 1.34 467.49 0L467.49 0L467.49 0Q465.86-1.34 465.86-3.78ZM469.31-15.81L469.31-15.81L469.31-15.81Q469.31-16.26 469.44-16.90L469.44-16.90L474.43-42.62L474.43-42.62Q476.80-43.52 479.62-43.52L479.62-43.52L479.62-43.52Q482.43-43.52 483.90-41.73L483.90-41.73L483.90-41.73Q485.38-39.94 485.38-37.28L485.38-37.28L485.38-37.28Q485.38-34.62 484.35-31.65L484.35-31.65L484.35-31.65Q483.33-28.67 482.08-25.66L482.08-25.66L482.08-25.66Q480.83-22.66 479.78-19.55L479.78-19.55L479.78-19.55Q478.72-16.45 478.66-13.18L478.66-13.18L478.66-13.18Q477.18-11.52 474.62-11.52L474.62-11.52L474.62-11.52Q472.06-11.52 470.69-12.70L470.69-12.70L470.69-12.70Q469.31-13.89 469.31-15.81ZM502.53 5.79L502.53 5.79L502.53 5.79Q500.86 2.56 499.90-1.70L499.90-1.70L499.90-1.70Q498.94-5.95 498.94-10.75L498.94-10.75L498.94-10.75Q498.94-15.55 499.87-20.48L499.87-20.48L499.87-20.48Q500.80-25.41 502.46-29.89L502.46-29.89L502.46-29.89Q504.13-34.37 506.37-38.27L506.37-38.27L506.37-38.27Q508.61-42.18 511.17-45.06L511.17-45.06L511.17-45.06Q516.74-51.20 522.24-51.20L522.24-51.20L522.24-51.20Q524.61-51.20 525.50-49.92L525.50-49.92L525.50-49.92Q512.13-40.64 508.48-18.82L508.48-18.82L508.48-18.82Q507.33-11.71 507.33-3.58L507.33-3.58L507.33-3.58Q507.33 1.09 508.70 4.64L508.70 4.64L508.70 4.64Q510.08 8.19 513.22 11.52L513.22 11.52L513.22 11.52Q512.83 12.80 510.66 12.80L510.66 12.80L510.66 12.80Q508.48 12.80 506.34 10.91L506.34 10.91L506.34 10.91Q504.19 9.02 502.53 5.79ZM548.10-33.92L548.10-33.92L548.10-33.92Q542.91-33.92 539.14-35.65L539.14-35.65L537.09-25.28L549.44-25.28L549.44-25.28Q549.44-21.89 547.74-19.74L547.74-19.74L547.74-19.74Q546.05-17.60 542.98-17.60L542.98-17.60L542.98-17.60Q539.65-17.60 536.58-18.82L536.58-18.82L536.58-18.82Q535.94-19.07 535.87-19.14L535.87-19.14L532.22 0L518.27 0L526.40-42.24L554.94-42.24L554.94-42.24Q554.94-38.34 553.12-36.13L553.12-36.13L553.12-36.13Q551.30-33.92 548.10-33.92ZM578.82-10.82L578.82-10.82L578.82-10.82Q580.42-9.73 580.42-7.33L580.42-7.33L580.42-7.33Q580.42-4.93 579.20-3.39L579.20-3.39L579.20-3.39Q577.98-1.86 576.00-0.83L576.00-0.83L576.00-0.83Q571.90 1.28 567.49 1.28L567.49 1.28L567.49 1.28Q563.07 1.28 560.48 0.32L560.48 0.32L560.48 0.32Q557.89-0.64 556.16-2.43L556.16-2.43L556.16-2.43Q552.77-5.82 552.77-12.03L552.77-12.03L552.77-12.03Q552.77-21.70 558.02-27.58L558.02-27.58L558.02-27.58Q563.65-33.92 573.44-33.92L573.44-33.92L573.44-33.92Q579.52-33.92 582.53-31.36L582.53-31.36L582.53-31.36Q584.77-29.44 584.77-26.30L584.77-26.30L584.77-26.30Q584.77-15.04 565.31-15.04L565.31-15.04L565.31-15.04Q565.06-13.38 565.06-11.97L565.06-11.97L565.06-11.97Q565.06-9.02 566.37-7.90L566.37-7.90L566.37-7.90Q567.68-6.78 570.11-6.78L570.11-6.78L570.11-6.78Q572.54-6.78 575.14-7.90L575.14-7.90L575.14-7.90Q577.73-9.02 578.82-10.82ZM565.76-17.79L565.76-17.79L565.76-17.79Q570.30-17.79 572.93-20.61L572.93-20.61L572.93-20.61Q575.55-23.30 575.55-27.58L575.55-27.58L575.55-27.58Q575.55-29.06 575.01-29.86L575.01-29.86L575.01-29.86Q574.46-30.66 573.38-30.66L573.38-30.66L573.38-30.66Q572.29-30.66 571.36-30.24L571.36-30.24L571.36-30.24Q570.43-29.82 569.47-28.42L569.47-28.42L569.47-28.42Q567.10-25.22 565.76-17.79ZM602.24-3.52L602.24-3.52L602.24-3.52Q600.26 1.28 593.92 1.28L593.92 1.28L593.92 1.28Q590.72 1.28 588.67-0.96L588.67-0.96L588.67-0.96Q587.01-2.82 587.01-4.93L587.01-4.93L587.01-4.93Q587.01-9.73 589.25-20.22L589.25-20.22L593.92-44.80L606.91-46.08L600.70-13.70L600.70-13.70Q599.62-8.96 599.62-7.30L599.62-7.30L599.62-7.30Q599.62-3.65 602.24-3.52ZM623.04-3.52L623.04-3.52L623.04-3.52Q621.06 1.28 614.72 1.28L614.72 1.28L614.72 1.28Q611.46 1.28 609.41-0.96L609.41-0.96L609.41-0.96Q607.68-2.94 607.68-4.93L607.68-4.93L607.68-4.93Q607.68-10.11 610.05-20.22L610.05-20.22L612.42-32.64L625.41-33.92L621.50-13.70L621.50-13.70Q620.42-8.96 620.42-7.30L620.42-7.30L620.42-7.30Q620.42-3.65 623.04-3.52ZM613.57-41.54L613.57-41.54L613.57-41.54Q613.57-44.03 615.65-45.38L615.65-45.38L615.65-45.38Q617.73-46.72 620.74-46.72L620.74-46.72L620.74-46.72Q623.74-46.72 625.57-45.38L625.57-45.38L625.57-45.38Q627.39-44.03 627.39-41.54L627.39-41.54L627.39-41.54Q627.39-39.04 625.38-37.76L625.38-37.76L625.38-37.76Q623.36-36.48 620.35-36.48L620.35-36.48L620.35-36.48Q617.34-36.48 615.46-37.76L615.46-37.76L615.46-37.76Q613.57-39.04 613.57-41.54ZM640.80 0.64L640.80 0.64L640.80 0.64Q637.76 0 636.19-0.29L636.19-0.29L636.19-0.29Q634.62-0.58 632.80-0.58L632.80-0.58L632.80-0.58Q630.98-0.58 629.18 0.06L629.18 0.06L629.18 0.06Q628.22-0.51 627.62-1.66L627.62-1.66L627.62-1.66Q627.01-2.82 627.01-4.61L627.01-4.61L627.01-4.61Q627.01-8.38 630.85-11.26L630.85-11.26L647.10-22.98L647.10-22.98Q642.56-24.26 638.43-24.26L638.43-24.26L638.43-24.26Q634.30-24.26 632.83-21.44L632.83-21.44L632.83-21.44Q630.66-24 630.66-28.03L630.66-28.03L630.66-28.03Q630.66-30.72 632.61-32.48L632.61-32.48L632.61-32.48Q634.56-34.24 638.66-34.24L638.66-34.24L638.66-34.24Q640.96-34.24 643.04-33.95L643.04-33.95L643.04-33.95Q645.12-33.66 646.98-33.41L646.98-33.41L650.43-32.90L650.43-32.90Q652.10-32.64 653.79-32.64L653.79-32.64L653.79-32.64Q655.49-32.64 656.77-33.34L656.77-33.34L656.77-33.34Q658.43-31.81 658.43-29.70L658.43-29.70L658.43-29.70Q658.43-26.37 654.34-22.91L654.34-22.91L638.14-10.82L638.14-10.82Q643.14-9.34 645.70-9.34L645.70-9.34L645.70-9.34Q651.07-9.34 653.38-11.90L653.38-11.90L653.38-11.90Q655.17-9.86 655.17-6.30L655.17-6.30L655.17-6.30Q655.17-2.75 652.86-0.74L652.86-0.74L652.86-0.74Q650.56 1.28 646.40 1.28L646.40 1.28L646.40 1.28Q643.84 1.28 640.80 0.64ZM685.76 0.83L681.66 0.70L681.66 0.70Q679.68 0.64 677.60 0.64L677.60 0.64L677.60 0.64Q675.52 0.64 673.47 0.90L673.47 0.90L673.47 0.90Q673.22-0.13 673.22-1.34L673.22-1.34L673.22-1.34Q673.22-3.90 674.66-5.44L674.66-5.44L674.66-5.44Q676.10-6.98 678.34-6.98L678.34-6.98L681.79-6.98L687.17-31.17L687.17-31.17Q685.18-29.18 681.09-29.18L681.09-29.18L681.09-29.18Q679.04-29.18 677.44-31.10L677.44-31.10L677.44-31.10Q675.84-32.90 675.58-35.46L675.58-35.46L675.58-35.46Q685.06-37.12 699.20-43.46L699.20-43.46L701.25-41.02L695.04-6.98L696.64-6.98L696.64-6.98Q700.48-6.98 702.46-7.68L702.46-7.68L702.46-7.68Q703.30-6.27 703.30-3.97L703.30-3.97L703.30-3.97Q703.30-1.66 701.60-0.29L701.60-0.29L701.60-0.29Q699.90 1.09 697.09 1.09L697.09 1.09L697.09 1.09Q691.39 1.09 685.76 0.83L685.76 0.83ZM723.30-1.92L723.30-1.92L723.30-1.92Q721.79-3.58 721.12-6.21L721.12-6.21L721.12-6.21Q720.45-8.83 720.45-13.12L720.45-13.12L720.45-13.12Q720.45-17.41 721.92-21.31L721.92-21.31L721.92-21.31Q723.39-25.22 726.08-28.03L726.08-28.03L726.08-28.03Q731.58-33.92 740.67-33.92L740.67-33.92L740.67-33.92Q743.94-33.92 746.30-32.83L746.30-32.83L757.25-33.92L752.51-8.96L752.51-8.96Q752.32-8.19 752.32-6.78L752.32-6.78L752.32-6.78Q752.32-5.38 753.18-4.48L753.18-4.48L753.18-4.48Q754.05-3.58 755.33-3.46L755.33-3.46L755.33-3.46Q754.69-1.28 752.35 0L752.35 0L752.35 0Q750.02 1.28 747.39 1.28L747.39 1.28L747.39 1.28Q744.77 1.28 743.01 0.29L743.01 0.29L743.01 0.29Q741.25-0.70 740.74-2.37L740.74-2.37L740.74-2.37Q739.71-0.77 737.54 0.26L737.54 0.26L737.54 0.26Q735.36 1.28 732.45 1.28L732.45 1.28L732.45 1.28Q729.54 1.28 727.17 0.51L727.17 0.51L727.17 0.51Q724.80-0.26 723.30-1.92ZM736.80-27.90L736.80-27.90L736.80-27.90Q736.06-26.75 735.42-24.80L735.42-24.80L735.42-24.80Q734.78-22.85 733.73-17.63L733.73-17.63L733.73-17.63Q732.67-12.42 732.67-8.70L732.67-8.70L732.67-8.70Q732.67-4.99 733.25-3.90L733.25-3.90L733.25-3.90Q733.82-2.82 734.85-2.82L734.85-2.82L734.85-2.82Q736.90-2.82 738.40-4.77L738.40-4.77L738.40-4.77Q739.90-6.72 740.48-10.18L740.48-10.18L743.87-28.93L743.87-28.93Q742.53-30.08 740.96-30.08L740.96-30.08L740.96-30.08Q739.39-30.08 738.46-29.57L738.46-29.57L738.46-29.57Q737.54-29.06 736.80-27.90ZM787.78 1.28L787.78 1.28L787.78 1.28Q780.03 1.28 780.03-4.74L780.03-4.74L780.03-4.74Q780.10-6.40 780.61-9.22L780.61-9.22L781.76-15.10L781.76-15.10Q783.49-23.42 783.49-25.28L783.49-25.28L783.49-25.28Q783.49-28.99 781.31-28.99L781.31-28.99L781.31-28.99Q777.66-28.99 775.74-19.46L775.74-19.46L771.97 0L759.10 1.28L765.76-32.70L776.26-33.92L775.23-27.65L775.23-27.65Q778.24-33.92 787.46-33.92L787.46-33.92L787.46-33.92Q791.94-33.92 793.82-32.03L793.82-32.03L793.82-32.03Q795.71-30.14 795.71-25.92L795.71-25.92L795.71-25.92Q795.71-21.95 793.66-12.67L793.66-12.67L793.66-12.67Q792.70-8.51 792.70-6.94L792.70-6.94L792.70-6.94Q792.70-5.38 793.57-4.48L793.57-4.48L793.57-4.48Q794.43-3.58 795.71-3.46L795.71-3.46L795.71-3.46Q795.07-1.28 792.86 0L792.86 0L792.86 0Q790.66 1.28 787.78 1.28ZM814.78 1.28L814.78 1.28L814.78 1.28Q800.70 1.28 800.70-11.97L800.70-11.97L800.70-11.97Q800.70-21.38 805.89-27.46L805.89-27.46L805.89-27.46Q811.39-33.92 820.93-33.92L820.93-33.92L820.93-33.92Q827.84-33.92 831.36-30.72L831.36-30.72L831.36-30.72Q834.88-27.52 834.88-20.80L834.88-20.80L834.88-20.80Q834.88-10.56 829.38-4.61L829.38-4.61L829.38-4.61Q824 1.28 814.78 1.28ZM816.45-26.56L816.45-26.56L816.45-26.56Q815.68-24.83 815.07-22.24L815.07-22.24L815.07-22.24Q814.46-19.65 813.70-15.55L813.70-15.55L813.70-15.55Q812.93-11.46 812.93-6.40L812.93-6.40L812.93-6.40Q812.93-4.74 813.47-3.65L813.47-3.65L813.47-3.65Q814.02-2.56 815.49-2.56L815.49-2.56L815.49-2.56Q816.96-2.56 817.89-3.26L817.89-3.26L817.89-3.26Q818.82-3.97 819.52-5.63L819.52-5.63L819.52-5.63Q820.80-8.58 821.82-14.05L821.82-14.05L821.82-14.05Q822.85-19.52 822.94-21.89L822.94-21.89L822.94-21.89Q823.04-24.26 823.04-26.02L823.04-26.02L823.04-26.02Q823.04-27.78 822.53-28.93L822.53-28.93L822.53-28.93Q822.02-30.08 820.58-30.08L820.58-30.08L820.58-30.08Q819.14-30.08 818.18-29.18L818.18-29.18L818.18-29.18Q817.22-28.29 816.45-26.56ZM877.76-10.82L877.76-10.82L877.76-10.82Q879.36-9.73 879.36-7.33L879.36-7.33L879.36-7.33Q879.36-4.93 878.14-3.39L878.14-3.39L878.14-3.39Q876.93-1.86 874.94-0.83L874.94-0.83L874.94-0.83Q870.85 1.28 866.43 1.28L866.43 1.28L866.43 1.28Q862.02 1.28 859.42 0.32L859.42 0.32L859.42 0.32Q856.83-0.64 855.10-2.43L855.10-2.43L855.10-2.43Q851.71-5.82 851.71-12.03L851.71-12.03L851.71-12.03Q851.71-21.70 856.96-27.58L856.96-27.58L856.96-27.58Q862.59-33.92 872.38-33.92L872.38-33.92L872.38-33.92Q878.46-33.92 881.47-31.36L881.47-31.36L881.47-31.36Q883.71-29.44 883.71-26.30L883.71-26.30L883.71-26.30Q883.71-15.04 864.26-15.04L864.26-15.04L864.26-15.04Q864-13.38 864-11.97L864-11.97L864-11.97Q864-9.02 865.31-7.90L865.31-7.90L865.31-7.90Q866.62-6.78 869.06-6.78L869.06-6.78L869.06-6.78Q871.49-6.78 874.08-7.90L874.08-7.90L874.08-7.90Q876.67-9.02 877.76-10.82ZM864.70-17.79L864.70-17.79L864.70-17.79Q869.25-17.79 871.87-20.61L871.87-20.61L871.87-20.61Q874.50-23.30 874.50-27.58L874.50-27.58L874.50-27.58Q874.50-29.06 873.95-29.86L873.95-29.86L873.95-29.86Q873.41-30.66 872.32-30.66L872.32-30.66L872.32-30.66Q871.23-30.66 870.30-30.24L870.30-30.24L870.30-30.24Q869.38-29.82 868.42-28.42L868.42-28.42L868.42-28.42Q866.05-25.22 864.70-17.79ZM910.91 0.83L906.82 0.70L906.82 0.70Q904.83 0.64 902.75 0.64L902.75 0.64L902.75 0.64Q900.67 0.64 898.62 0.90L898.62 0.90L898.62 0.90Q898.37-0.13 898.37-1.34L898.37-1.34L898.37-1.34Q898.37-3.90 899.81-5.44L899.81-5.44L899.81-5.44Q901.25-6.98 903.49-6.98L903.49-6.98L906.94-6.98L912.32-31.17L912.32-31.17Q910.34-29.18 906.24-29.18L906.24-29.18L906.24-29.18Q904.19-29.18 902.59-31.10L902.59-31.10L902.59-31.10Q900.99-32.90 900.74-35.46L900.74-35.46L900.74-35.46Q910.21-37.12 924.35-43.46L924.35-43.46L926.40-41.02L920.19-6.98L921.79-6.98L921.79-6.98Q925.63-6.98 927.62-7.68L927.62-7.68L927.62-7.68Q928.45-6.27 928.45-3.97L928.45-3.97L928.45-3.97Q928.45-1.66 926.75-0.29L926.75-0.29L926.75-0.29Q925.06 1.09 922.24 1.09L922.24 1.09L922.24 1.09Q916.54 1.09 910.91 0.83L910.91 0.83ZM991.74 1.28L991.74 1.28L991.74 1.28Q984.00 1.28 984.00-4.74L984.00-4.74L984.00-4.74Q984.00-7.36 985.12-12.45L985.12-12.45L985.12-12.45Q986.24-17.54 986.62-19.58L986.62-19.58L986.62-19.58Q987.52-24.26 987.52-25.73L987.52-25.73L987.52-25.73Q987.52-28.99 985.09-28.99L985.09-28.99L985.09-28.99Q983.49-28.99 981.95-26.78L981.95-26.78L981.95-26.78Q980.42-24.58 979.71-20.16L979.71-20.16L975.74 0L963.26 1.28L966.72-16.13L966.72-16.13Q967.30-19.01 967.81-22.27L967.81-22.27L967.81-22.27Q968.32-25.54 968.32-26.05L968.32-26.05L968.32-26.05Q968.32-28.99 966.14-28.99L966.14-28.99L966.14-28.99Q964.67-28.99 963.07-26.82L963.07-26.82L963.07-26.82Q961.47-24.64 960.58-20.16L960.58-20.16L956.67 0L944.06 1.28L950.78-32.64L961.22-33.92L960.13-27.46L960.13-27.46Q961.79-30.91 964.86-32.42L964.86-32.42L964.86-32.42Q967.94-33.92 972.74-33.92L972.74-33.92L972.74-33.92Q975.49-33.92 977.28-32.58L977.28-32.58L977.28-32.58Q979.07-31.23 979.65-29.06L979.65-29.06L979.65-29.06Q980.74-31.30 983.52-32.61L983.52-32.61L983.52-32.61Q986.30-33.92 989.73-33.92L989.73-33.92L989.73-33.92Q993.15-33.92 994.85-33.18L994.85-33.18L994.85-33.18Q996.54-32.45 997.57-31.23L997.57-31.23L997.57-31.23Q999.30-28.99 999.30-24.90L999.30-24.90L999.30-24.90Q999.30-20.86 997.57-12.48L997.57-12.48L997.57-12.48Q996.67-8.38 996.67-6.88L996.67-6.88L996.67-6.88Q996.67-5.38 997.54-4.48L997.54-4.48L997.54-4.48Q998.40-3.58 999.68-3.46L999.68-3.46L999.68-3.46Q999.04-1.28 996.83 0L996.83 0L996.83 0Q994.62 1.28 991.74 1.28ZM1030.53-10.82L1030.53-10.82L1030.53-10.82Q1032.13-9.73 1032.13-7.33L1032.13-7.33L1032.13-7.33Q1032.13-4.93 1030.91-3.39L1030.91-3.39L1030.91-3.39Q1029.70-1.86 1027.71-0.83L1027.71-0.83L1027.71-0.83Q1023.62 1.28 1019.20 1.28L1019.20 1.28L1019.20 1.28Q1014.78 1.28 1012.19 0.32L1012.19 0.32L1012.19 0.32Q1009.60-0.64 1007.87-2.43L1007.87-2.43L1007.87-2.43Q1004.48-5.82 1004.48-12.03L1004.48-12.03L1004.48-12.03Q1004.48-21.70 1009.73-27.58L1009.73-27.58L1009.73-27.58Q1015.36-33.92 1025.15-33.92L1025.15-33.92L1025.15-33.92Q1031.23-33.92 1034.24-31.36L1034.24-31.36L1034.24-31.36Q1036.48-29.44 1036.48-26.30L1036.48-26.30L1036.48-26.30Q1036.48-15.04 1017.02-15.04L1017.02-15.04L1017.02-15.04Q1016.77-13.38 1016.77-11.97L1016.77-11.97L1016.77-11.97Q1016.77-9.02 1018.08-7.90L1018.08-7.90L1018.08-7.90Q1019.39-6.78 1021.82-6.78L1021.82-6.78L1021.82-6.78Q1024.26-6.78 1026.85-7.90L1026.85-7.90L1026.85-7.90Q1029.44-9.02 1030.53-10.82ZM1017.47-17.79L1017.47-17.79L1017.47-17.79Q1022.02-17.79 1024.64-20.61L1024.64-20.61L1024.64-20.61Q1027.26-23.30 1027.26-27.58L1027.26-27.58L1027.26-27.58Q1027.26-29.06 1026.72-29.86L1026.72-29.86L1026.72-29.86Q1026.18-30.66 1025.09-30.66L1025.09-30.66L1025.09-30.66Q1024.00-30.66 1023.07-30.24L1023.07-30.24L1023.07-30.24Q1022.14-29.82 1021.18-28.42L1021.18-28.42L1021.18-28.42Q1018.82-25.22 1017.47-17.79ZM1016.32-36.86L1014.21-40.83L1026.69-49.15L1036.48-40.77L1033.28-36.86L1025.79-41.47L1016.32-36.86ZM1057.79-22.46L1057.79-22.46L1057.79-22.46Q1058.69-24.83 1058.69-26.88L1058.69-26.88L1058.69-26.88Q1058.69-30.66 1055.62-30.66L1055.62-30.66L1055.62-30.66Q1054.02-30.66 1052.70-29.22L1052.70-29.22L1052.70-29.22Q1051.39-27.78 1051.39-25.98L1051.39-25.98L1051.39-25.98Q1051.39-24.70 1052.42-23.68L1052.42-23.68L1052.42-23.68Q1053.89-22.27 1057.66-19.97L1057.66-19.97L1057.66-19.97Q1061.44-17.66 1062.88-15.78L1062.88-15.78L1062.88-15.78Q1064.32-13.89 1064.32-11.30L1064.32-11.30L1064.32-11.30Q1064.32-8.70 1063.07-6.34L1063.07-6.34L1063.07-6.34Q1061.82-3.97 1059.58-2.30L1059.58-2.30L1059.58-2.30Q1054.78 1.28 1047.10 1.28L1047.10 1.28L1047.10 1.28Q1042.94 1.28 1039.74-0.90L1039.74-0.90L1039.74-0.90Q1036.54-3.01 1036.54-5.50L1036.54-5.50L1036.54-5.50Q1036.54-8 1038.37-9.47L1038.37-9.47L1038.37-9.47Q1040.19-10.94 1042.88-10.94L1042.88-10.94L1042.88-10.94Q1045.57-10.94 1047.23-9.92L1047.23-9.92L1047.23-9.92Q1046.40-7.81 1046.40-6.40L1046.40-6.40L1046.40-6.40Q1046.40-2.18 1049.98-2.18L1049.98-2.18L1049.98-2.18Q1051.52-2.18 1052.54-3.14L1052.54-3.14L1052.54-3.14Q1053.57-4.10 1053.57-5.76L1053.57-5.76L1053.57-5.76Q1053.57-9.02 1048.06-12.48L1048.06-12.48L1048.06-12.48Q1043.58-15.42 1042.56-16.58L1042.56-16.58L1042.56-16.58Q1040.83-18.62 1040.83-21.18L1040.83-21.18L1040.83-21.18Q1040.83-23.74 1042.05-26.18L1042.05-26.18L1042.05-26.18Q1043.26-28.61 1045.50-30.34L1045.50-30.34L1045.50-30.34Q1050.18-33.92 1058.30-33.92L1058.30-33.92L1058.30-33.92Q1062.46-33.92 1064.93-32.26L1064.93-32.26L1064.93-32.26Q1067.39-30.59 1067.39-27.78L1067.39-27.78L1067.39-27.78Q1067.39-24.96 1065.70-23.36L1065.70-23.36L1065.70-23.36Q1064.00-21.76 1060.93-21.76L1060.93-21.76L1060.93-21.76Q1058.82-21.76 1057.79-22.46ZM1061.82 11.52L1061.82 11.52L1061.82 11.52Q1070.59 5.57 1075.20-6.53L1075.20-6.53L1075.20-6.53Q1079.81-18.37 1079.81-34.75L1079.81-34.75L1079.81-34.75Q1079.81-39.49 1078.43-43.04L1078.43-43.04L1078.43-43.04Q1077.06-46.59 1073.98-49.92L1073.98-49.92L1073.98-49.92Q1074.11-50.43 1074.82-50.82L1074.82-50.82L1074.82-50.82Q1075.52-51.20 1076.22-51.20L1076.22-51.20L1076.22-51.20Q1078.59-51.20 1080.77-49.28L1080.77-49.28L1080.77-49.28Q1082.94-47.36 1084.61-44.16L1084.61-44.16L1084.61-44.16Q1088.19-37.18 1088.19-27.65L1088.19-27.65L1088.19-27.65Q1088.19-17.92 1084.67-8.45L1084.67-8.45L1084.67-8.45Q1081.28 0.77 1075.97 6.66L1075.97 6.66L1075.97 6.66Q1070.40 12.80 1064.90 12.80L1064.90 12.80L1064.90 12.80Q1062.46 12.80 1061.82 11.52Z" fill="#f00" stroke="#0f0" stroke-width="1.8"></path></g></g><g><g transform="translate(-294.35005736351013, 107)"><path d="M28.42-9.86L28.42-9.86L28.42-9.86Q29.63-8.32 29.63-5.82L29.63-5.82L29.63-5.82Q29.63-2.37 27.07-0.54L27.07-0.54L27.07-0.54Q24.51 1.28 20.48 1.28L20.48 1.28L20.48 1.28Q18.18 1.28 14.66 0.77L14.66 0.77L14.66 0.77Q7.74-0.32 5.63-0.32L5.63-0.32L5.63-0.32Q3.52-0.32 2.69-0.22L2.69-0.22L2.69-0.22Q1.86-0.13 0.51 0L0.51 0L8.38-42.24L35.97-42.24L35.97-42.24Q35.97-38.34 34.08-36.29L34.08-36.29L34.08-36.29Q32.19-34.24 28.48-34.24L28.48-34.24L28.48-34.24Q24.77-34.24 20.99-35.97L20.99-35.97L19.01-24.77L30.40-24.77L30.40-24.77Q30.40-21.38 28.74-19.49L28.74-19.49L28.74-19.49Q27.07-17.60 24.29-17.60L24.29-17.60L24.29-17.60Q21.50-17.60 19.78-18.24L19.78-18.24L19.78-18.24Q18.05-18.88 17.86-19.07L17.86-19.07L15.55-6.98L15.55-6.98Q17.09-6.78 19.97-6.78L19.97-6.78L19.97-6.78Q24.90-6.78 28.42-9.86ZM56.06-2.69L56.06-2.69L56.06-2.69Q52.99 1.28 45.38 1.28L45.38 1.28L45.38 1.28Q41.41 1.28 38.53-1.12L38.53-1.12L38.53-1.12Q35.65-3.52 35.65-6.98L35.65-6.98L35.65-6.98Q35.65-8.90 35.84-9.86L35.84-9.86L40.13-32.64L53.12-33.92L48.45-9.22L48.45-9.22Q48.19-7.81 48.19-6.98L48.19-6.98L48.19-6.98Q48.19-3.26 50.43-3.26L50.43-3.26L50.43-3.26Q52.93-3.26 54.72-6.66L54.72-6.66L54.72-6.66Q55.30-7.74 55.55-9.15L55.55-9.15L60.10-32.64L72.70-33.92L67.97-8.96L67.97-8.96Q67.78-8 67.78-6.98L67.78-6.98L67.78-6.98Q67.78-5.95 68.35-4.83L68.35-4.83L68.35-4.83Q68.93-3.71 70.78-3.46L70.78-3.46L70.78-3.46Q70.40-1.92 69.06-0.90L69.06-0.90L69.06-0.90Q66.24 1.28 63.20 1.28L63.20 1.28L63.20 1.28Q60.16 1.28 58.37 0.19L58.37 0.19L58.37 0.19Q56.58-0.90 56.06-2.69ZM90.37-6.40L90.37-6.40L90.37-6.40Q90.37-8.13 91.26-12.48L91.26-12.48L94.66-29.76L90.88-29.76L91.14-31.68L91.14-31.68Q98.82-33.98 106.24-39.62L106.24-39.62L109.31-39.62L107.78-32.64L112.77-32.64L112.19-29.76L107.26-29.76L104-12.48L104-12.48Q103.17-8.51 103.17-7.17L103.17-7.17L103.17-7.17Q103.17-4.10 105.86-3.46L105.86-3.46L105.86-3.46Q105.22-1.28 102.91 0L102.91 0L102.91 0Q100.61 1.28 97.34 1.28L97.34 1.28L97.34 1.28Q94.08 1.28 92.22-0.77L92.22-0.77L92.22-0.77Q90.37-2.82 90.37-6.40ZM138.11-10.82L138.11-10.82L138.11-10.82Q139.71-9.73 139.71-7.33L139.71-7.33L139.71-7.33Q139.71-4.93 138.50-3.39L138.50-3.39L138.50-3.39Q137.28-1.86 135.30-0.83L135.30-0.83L135.30-0.83Q131.20 1.28 126.78 1.28L126.78 1.28L126.78 1.28Q122.37 1.28 119.78 0.32L119.78 0.32L119.78 0.32Q117.18-0.64 115.46-2.43L115.46-2.43L115.46-2.43Q112.06-5.82 112.06-12.03L112.06-12.03L112.06-12.03Q112.06-21.70 117.31-27.58L117.31-27.58L117.31-27.58Q122.94-33.92 132.74-33.92L132.74-33.92L132.74-33.92Q138.82-33.92 141.82-31.36L141.82-31.36L141.82-31.36Q144.06-29.44 144.06-26.30L144.06-26.30L144.06-26.30Q144.06-15.04 124.61-15.04L124.61-15.04L124.61-15.04Q124.35-13.38 124.35-11.97L124.35-11.97L124.35-11.97Q124.35-9.02 125.66-7.90L125.66-7.90L125.66-7.90Q126.98-6.78 129.41-6.78L129.41-6.78L129.41-6.78Q131.84-6.78 134.43-7.90L134.43-7.90L134.43-7.90Q137.02-9.02 138.11-10.82ZM125.06-17.79L125.06-17.79L125.06-17.79Q129.60-17.79 132.22-20.61L132.22-20.61L132.22-20.61Q134.85-23.30 134.85-27.58L134.85-27.58L134.85-27.58Q134.85-29.06 134.30-29.86L134.30-29.86L134.30-29.86Q133.76-30.66 132.67-30.66L132.67-30.66L132.67-30.66Q131.58-30.66 130.66-30.24L130.66-30.24L130.66-30.24Q129.73-29.82 128.77-28.42L128.77-28.42L128.77-28.42Q126.40-25.22 125.06-17.79ZM162.21-1.92L162.21-1.92L162.21-1.92Q160.70-3.58 160.03-6.21L160.03-6.21L160.03-6.21Q159.36-8.83 159.36-13.12L159.36-13.12L159.36-13.12Q159.36-17.41 160.83-21.31L160.83-21.31L160.83-21.31Q162.30-25.22 164.99-28.03L164.99-28.03L164.99-28.03Q170.50-33.92 179.58-33.92L179.58-33.92L179.58-33.92Q182.85-33.92 185.22-32.83L185.22-32.83L196.16-33.92L191.42-8.96L191.42-8.96Q191.23-8.19 191.23-6.78L191.23-6.78L191.23-6.78Q191.23-5.38 192.10-4.48L192.10-4.48L192.10-4.48Q192.96-3.58 194.24-3.46L194.24-3.46L194.24-3.46Q193.60-1.28 191.26 0L191.26 0L191.26 0Q188.93 1.28 186.30 1.28L186.30 1.28L186.30 1.28Q183.68 1.28 181.92 0.29L181.92 0.29L181.92 0.29Q180.16-0.70 179.65-2.37L179.65-2.37L179.65-2.37Q178.62-0.77 176.45 0.26L176.45 0.26L176.45 0.26Q174.27 1.28 171.36 1.28L171.36 1.28L171.36 1.28Q168.45 1.28 166.08 0.51L166.08 0.51L166.08 0.51Q163.71-0.26 162.21-1.92ZM175.71-27.90L175.71-27.90L175.71-27.90Q174.98-26.75 174.34-24.80L174.34-24.80L174.34-24.80Q173.70-22.85 172.64-17.63L172.64-17.63L172.64-17.63Q171.58-12.42 171.58-8.70L171.58-8.70L171.58-8.70Q171.58-4.99 172.16-3.90L172.16-3.90L172.16-3.90Q172.74-2.82 173.76-2.82L173.76-2.82L173.76-2.82Q175.81-2.82 177.31-4.77L177.31-4.77L177.31-4.77Q178.82-6.72 179.39-10.18L179.39-10.18L182.78-28.93L182.78-28.93Q181.44-30.08 179.87-30.08L179.87-30.08L179.87-30.08Q178.30-30.08 177.38-29.57L177.38-29.57L177.38-29.57Q176.45-29.06 175.71-27.90ZM245.70 1.28L245.70 1.28L245.70 1.28Q237.95 1.28 237.95-4.74L237.95-4.74L237.95-4.74Q237.95-7.36 239.07-12.45L239.07-12.45L239.07-12.45Q240.19-17.54 240.58-19.58L240.58-19.58L240.58-19.58Q241.47-24.26 241.47-25.73L241.47-25.73L241.47-25.73Q241.47-28.99 239.04-28.99L239.04-28.99L239.04-28.99Q237.44-28.99 235.90-26.78L235.90-26.78L235.90-26.78Q234.37-24.58 233.66-20.16L233.66-20.16L229.70 0L217.22 1.28L220.67-16.13L220.67-16.13Q221.25-19.01 221.76-22.27L221.76-22.27L221.76-22.27Q222.27-25.54 222.27-26.05L222.27-26.05L222.27-26.05Q222.27-28.99 220.10-28.99L220.10-28.99L220.10-28.99Q218.62-28.99 217.02-26.82L217.02-26.82L217.02-26.82Q215.42-24.64 214.53-20.16L214.53-20.16L210.62 0L198.02 1.28L204.74-32.64L215.17-33.92L214.08-27.46L214.08-27.46Q215.74-30.91 218.82-32.42L218.82-32.42L218.82-32.42Q221.89-33.92 226.69-33.92L226.69-33.92L226.69-33.92Q229.44-33.92 231.23-32.58L231.23-32.58L231.23-32.58Q233.02-31.23 233.60-29.06L233.60-29.06L233.60-29.06Q234.69-31.30 237.47-32.61L237.47-32.61L237.47-32.61Q240.26-33.92 243.68-33.92L243.68-33.92L243.68-33.92Q247.10-33.92 248.80-33.18L248.80-33.18L248.80-33.18Q250.50-32.45 251.52-31.23L251.52-31.23L251.52-31.23Q253.25-28.99 253.25-24.90L253.25-24.90L253.25-24.90Q253.25-20.86 251.52-12.48L251.52-12.48L251.52-12.48Q250.62-8.38 250.62-6.88L250.62-6.88L250.62-6.88Q250.62-5.38 251.49-4.48L251.49-4.48L251.49-4.48Q252.35-3.58 253.63-3.46L253.63-3.46L253.63-3.46Q252.99-1.28 250.78 0L250.78 0L250.78 0Q248.58 1.28 245.70 1.28ZM272.51 1.28L272.51 1.28L272.51 1.28Q258.43 1.28 258.43-11.97L258.43-11.97L258.43-11.97Q258.43-21.38 263.62-27.46L263.62-27.46L263.62-27.46Q269.12-33.92 278.66-33.92L278.66-33.92L278.66-33.92Q285.57-33.92 289.09-30.72L289.09-30.72L289.09-30.72Q292.61-27.52 292.61-20.80L292.61-20.80L292.61-20.80Q292.61-10.56 287.10-4.61L287.10-4.61L287.10-4.61Q281.73 1.28 272.51 1.28ZM274.18-26.56L274.18-26.56L274.18-26.56Q273.41-24.83 272.80-22.24L272.80-22.24L272.80-22.24Q272.19-19.65 271.42-15.55L271.42-15.55L271.42-15.55Q270.66-11.46 270.66-6.40L270.66-6.40L270.66-6.40Q270.66-4.74 271.20-3.65L271.20-3.65L271.20-3.65Q271.74-2.56 273.22-2.56L273.22-2.56L273.22-2.56Q274.69-2.56 275.62-3.26L275.62-3.26L275.62-3.26Q276.54-3.97 277.25-5.63L277.25-5.63L277.25-5.63Q278.53-8.58 279.55-14.05L279.55-14.05L279.55-14.05Q280.58-19.52 280.67-21.89L280.67-21.89L280.67-21.89Q280.77-24.26 280.77-26.02L280.77-26.02L280.77-26.02Q280.77-27.78 280.26-28.93L280.26-28.93L280.26-28.93Q279.74-30.08 278.30-30.08L278.30-30.08L278.30-30.08Q276.86-30.08 275.90-29.18L275.90-29.18L275.90-29.18Q274.94-28.29 274.18-26.56ZM290.75 8.26L290.75 8.26L290.75 8.26Q295.68 2.94 295.68-3.71L295.68-3.71L295.68-3.71Q295.68-5.76 294.98-7.68L294.98-7.68L294.98-7.68Q295.74-8.19 297.28-8.54L297.28-8.54L297.28-8.54Q298.82-8.90 299.97-8.90L299.97-8.90L299.97-8.90Q302.78-8.90 304.45-7.39L304.45-7.39L304.45-7.39Q306.11-5.89 306.11-3.26L306.11-3.26L306.11-3.26Q306.11-0.64 305.09 1.47L305.09 1.47L305.09 1.47Q304.06 3.58 302.34 5.18L302.34 5.18L302.34 5.18Q298.62 8.64 293.50 8.64L293.50 8.64L293.50 8.64Q292.48 8.64 290.75 8.26ZM351.23-20.61L364.16-21.76L364.16-21.76Q359.55-11.65 359.55 0.06L359.55 0.06L359.55 0.06Q357.82 1.28 355.30 1.28L355.30 1.28L355.30 1.28Q352.77 1.28 351.17 0.10L351.17 0.10L351.17 0.10Q349.57-1.09 349.25-2.30L349.25-2.30L349.25-2.30Q347.65-0.64 345.06 0.32L345.06 0.32L345.06 0.32Q342.46 1.28 339.71 1.28L339.71 1.28L339.71 1.28Q336.96 1.28 334.56 0.38L334.56 0.38L334.56 0.38Q332.16-0.51 330.30-2.50L330.30-2.50L330.30-2.50Q326.21-6.85 326.21-15.10L326.21-15.10L326.21-15.10Q326.21-27.90 333.06-35.58L333.06-35.58L333.06-35.58Q340.10-43.52 352.58-43.52L352.58-43.52L352.58-43.52Q361.22-43.52 364.29-39.04L364.29-39.04L364.29-39.04Q365.25-37.63 365.25-35.94L365.25-35.94L365.25-35.94Q365.25-34.24 364.51-32.80L364.51-32.80L364.51-32.80Q363.78-31.36 362.62-30.21L362.62-30.21L362.62-30.21Q359.87-27.65 356.48-27.65L356.48-27.65L356.48-27.65Q355.14-27.65 353.86-28.10L353.86-28.10L353.86-28.10Q354.11-30.02 354.11-32.26L354.11-32.26L354.11-32.26Q354.11-34.50 353.95-35.52L353.95-35.52L353.95-35.52Q353.79-36.54 353.41-37.38L353.41-37.38L353.41-37.38Q352.58-39.10 350.75-39.10L350.75-39.10L350.75-39.10Q348.93-39.10 346.91-37.15L346.91-37.15L346.91-37.15Q344.90-35.20 343.30-32L343.30-32L343.30-32Q339.78-24.83 339.78-16.19L339.78-16.19L339.78-16.19Q339.78-12.22 341.31-9.41L341.31-9.41L341.31-9.41Q342.98-6.34 345.92-6.34L345.92-6.34L345.92-6.34Q346.94-6.34 347.87-6.85L347.87-6.85L347.87-6.85Q348.80-7.36 349.18-7.74L349.18-7.74L351.23-20.61ZM370.08-1.92L370.08-1.92L370.08-1.92Q368.58-3.58 367.90-6.21L367.90-6.21L367.90-6.21Q367.23-8.83 367.23-13.12L367.23-13.12L367.23-13.12Q367.23-17.41 368.70-21.31L368.70-21.31L368.70-21.31Q370.18-25.22 372.86-28.03L372.86-28.03L372.86-28.03Q378.37-33.92 387.46-33.92L387.46-33.92L387.46-33.92Q390.72-33.92 393.09-32.83L393.09-32.83L404.03-33.92L399.30-8.96L399.30-8.96Q399.10-8.19 399.10-6.78L399.10-6.78L399.10-6.78Q399.10-5.38 399.97-4.48L399.97-4.48L399.97-4.48Q400.83-3.58 402.11-3.46L402.11-3.46L402.11-3.46Q401.47-1.28 399.14 0L399.14 0L399.14 0Q396.80 1.28 394.18 1.28L394.18 1.28L394.18 1.28Q391.55 1.28 389.79 0.29L389.79 0.29L389.79 0.29Q388.03-0.70 387.52-2.37L387.52-2.37L387.52-2.37Q386.50-0.77 384.32 0.26L384.32 0.26L384.32 0.26Q382.14 1.28 379.23 1.28L379.23 1.28L379.23 1.28Q376.32 1.28 373.95 0.51L373.95 0.51L373.95 0.51Q371.58-0.26 370.08-1.92ZM383.58-27.90L383.58-27.90L383.58-27.90Q382.85-26.75 382.21-24.80L382.21-24.80L382.21-24.80Q381.57-22.85 380.51-17.63L380.51-17.63L380.51-17.63Q379.46-12.42 379.46-8.70L379.46-8.70L379.46-8.70Q379.46-4.99 380.03-3.90L380.03-3.90L380.03-3.90Q380.61-2.82 381.63-2.82L381.63-2.82L381.63-2.82Q383.68-2.82 385.18-4.77L385.18-4.77L385.18-4.77Q386.69-6.72 387.26-10.18L387.26-10.18L390.66-28.93L390.66-28.93Q389.31-30.08 387.74-30.08L387.74-30.08L387.74-30.08Q386.18-30.08 385.25-29.57L385.25-29.57L385.25-29.57Q384.32-29.06 383.58-27.90ZM406.66-3.07L406.66-3.07L414.59-44.80L427.58-46.08L425.60-36.29L425.60-36.29Q424.90-33.28 424-31.17L424-31.17L424-31.17Q425.41-32.96 428.48-33.66L428.48-33.66L428.48-33.66Q429.38-33.92 430.46-33.92L430.46-33.92L430.46-33.92Q436.42-33.92 439.68-30.30L439.68-30.30L439.68-30.30Q442.94-26.69 442.94-19.71L442.94-19.71L442.94-19.71Q442.94-10.62 437.76-4.93L437.76-4.93L437.76-4.93Q432.19 1.28 422.08 1.28L422.08 1.28L422.08 1.28Q415.10 1.28 409.86-1.02L409.86-1.02L409.86-1.02Q408-1.86 406.66-3.07ZM422.91-22.40L419.52-3.65L419.52-3.65Q420.86-2.50 422.53-2.50L422.53-2.50L422.53-2.50Q424.19-2.50 425.15-3.14L425.15-3.14L425.15-3.14Q426.11-3.78 426.82-5.06L426.82-5.06L426.82-5.06Q428.74-8.51 430.27-19.07L430.27-19.07L430.27-19.07Q430.72-22.08 430.72-25.09L430.72-25.09L430.72-25.09Q430.72-28.10 430.05-29.06L430.05-29.06L430.05-29.06Q429.38-30.02 428.10-30.02L428.10-30.02L428.10-30.02Q424.19-30.02 422.91-22.40L422.91-22.40ZM462.14-3.52L462.14-3.52L462.14-3.52Q460.16 1.28 453.82 1.28L453.82 1.28L453.82 1.28Q450.56 1.28 448.51-0.96L448.51-0.96L448.51-0.96Q446.78-2.94 446.78-4.93L446.78-4.93L446.78-4.93Q446.78-10.11 449.15-20.22L449.15-20.22L451.52-32.64L464.51-33.92L460.61-13.70L460.61-13.70Q459.52-8.96 459.52-7.30L459.52-7.30L459.52-7.30Q459.52-3.65 462.14-3.52ZM452.67-41.54L452.67-41.54L452.67-41.54Q452.67-44.03 454.75-45.38L454.75-45.38L454.75-45.38Q456.83-46.72 459.84-46.72L459.84-46.72L459.84-46.72Q462.85-46.72 464.67-45.38L464.67-45.38L464.67-45.38Q466.50-44.03 466.50-41.54L466.50-41.54L466.50-41.54Q466.50-39.04 464.48-37.76L464.48-37.76L464.48-37.76Q462.46-36.48 459.46-36.48L459.46-36.48L459.46-36.48Q456.45-36.48 454.56-37.76L454.56-37.76L454.56-37.76Q452.67-39.04 452.67-41.54ZM465.86-3.78L465.86-3.78L465.86-3.78Q465.86-6.21 467.68-7.52L467.68-7.52L467.68-7.52Q469.50-8.83 472.19-8.83L472.19-8.83L472.19-8.83Q474.88-8.83 476.58-7.52L476.58-7.52L476.58-7.52Q478.27-6.21 478.27-3.78L478.27-3.78L478.27-3.78Q478.27-1.34 476.38 0L476.38 0L476.38 0Q474.50 1.34 471.81 1.34L471.81 1.34L471.81 1.34Q469.12 1.34 467.49 0L467.49 0L467.49 0Q465.86-1.34 465.86-3.78ZM469.31-15.81L469.31-15.81L469.31-15.81Q469.31-16.26 469.44-16.90L469.44-16.90L474.43-42.62L474.43-42.62Q476.80-43.52 479.62-43.52L479.62-43.52L479.62-43.52Q482.43-43.52 483.90-41.73L483.90-41.73L483.90-41.73Q485.38-39.94 485.38-37.28L485.38-37.28L485.38-37.28Q485.38-34.62 484.35-31.65L484.35-31.65L484.35-31.65Q483.33-28.67 482.08-25.66L482.08-25.66L482.08-25.66Q480.83-22.66 479.78-19.55L479.78-19.55L479.78-19.55Q478.72-16.45 478.66-13.18L478.66-13.18L478.66-13.18Q477.18-11.52 474.62-11.52L474.62-11.52L474.62-11.52Q472.06-11.52 470.69-12.70L470.69-12.70L470.69-12.70Q469.31-13.89 469.31-15.81ZM502.53 5.79L502.53 5.79L502.53 5.79Q500.86 2.56 499.90-1.70L499.90-1.70L499.90-1.70Q498.94-5.95 498.94-10.75L498.94-10.75L498.94-10.75Q498.94-15.55 499.87-20.48L499.87-20.48L499.87-20.48Q500.80-25.41 502.46-29.89L502.46-29.89L502.46-29.89Q504.13-34.37 506.37-38.27L506.37-38.27L506.37-38.27Q508.61-42.18 511.17-45.06L511.17-45.06L511.17-45.06Q516.74-51.20 522.24-51.20L522.24-51.20L522.24-51.20Q524.61-51.20 525.50-49.92L525.50-49.92L525.50-49.92Q512.13-40.64 508.48-18.82L508.48-18.82L508.48-18.82Q507.33-11.71 507.33-3.58L507.33-3.58L507.33-3.58Q507.33 1.09 508.70 4.64L508.70 4.64L508.70 4.64Q510.08 8.19 513.22 11.52L513.22 11.52L513.22 11.52Q512.83 12.80 510.66 12.80L510.66 12.80L510.66 12.80Q508.48 12.80 506.34 10.91L506.34 10.91L506.34 10.91Q504.19 9.02 502.53 5.79ZM548.10-33.92L548.10-33.92L548.10-33.92Q542.91-33.92 539.14-35.65L539.14-35.65L537.09-25.28L549.44-25.28L549.44-25.28Q549.44-21.89 547.74-19.74L547.74-19.74L547.74-19.74Q546.05-17.60 542.98-17.60L542.98-17.60L542.98-17.60Q539.65-17.60 536.58-18.82L536.58-18.82L536.58-18.82Q535.94-19.07 535.87-19.14L535.87-19.14L532.22 0L518.27 0L526.40-42.24L554.94-42.24L554.94-42.24Q554.94-38.34 553.12-36.13L553.12-36.13L553.12-36.13Q551.30-33.92 548.10-33.92ZM578.82-10.82L578.82-10.82L578.82-10.82Q580.42-9.73 580.42-7.33L580.42-7.33L580.42-7.33Q580.42-4.93 579.20-3.39L579.20-3.39L579.20-3.39Q577.98-1.86 576.00-0.83L576.00-0.83L576.00-0.83Q571.90 1.28 567.49 1.28L567.49 1.28L567.49 1.28Q563.07 1.28 560.48 0.32L560.48 0.32L560.48 0.32Q557.89-0.64 556.16-2.43L556.16-2.43L556.16-2.43Q552.77-5.82 552.77-12.03L552.77-12.03L552.77-12.03Q552.77-21.70 558.02-27.58L558.02-27.58L558.02-27.58Q563.65-33.92 573.44-33.92L573.44-33.92L573.44-33.92Q579.52-33.92 582.53-31.36L582.53-31.36L582.53-31.36Q584.77-29.44 584.77-26.30L584.77-26.30L584.77-26.30Q584.77-15.04 565.31-15.04L565.31-15.04L565.31-15.04Q565.06-13.38 565.06-11.97L565.06-11.97L565.06-11.97Q565.06-9.02 566.37-7.90L566.37-7.90L566.37-7.90Q567.68-6.78 570.11-6.78L570.11-6.78L570.11-6.78Q572.54-6.78 575.14-7.90L575.14-7.90L575.14-7.90Q577.73-9.02 578.82-10.82ZM565.76-17.79L565.76-17.79L565.76-17.79Q570.30-17.79 572.93-20.61L572.93-20.61L572.93-20.61Q575.55-23.30 575.55-27.58L575.55-27.58L575.55-27.58Q575.55-29.06 575.01-29.86L575.01-29.86L575.01-29.86Q574.46-30.66 573.38-30.66L573.38-30.66L573.38-30.66Q572.29-30.66 571.36-30.24L571.36-30.24L571.36-30.24Q570.43-29.82 569.47-28.42L569.47-28.42L569.47-28.42Q567.10-25.22 565.76-17.79ZM602.24-3.52L602.24-3.52L602.24-3.52Q600.26 1.28 593.92 1.28L593.92 1.28L593.92 1.28Q590.72 1.28 588.67-0.96L588.67-0.96L588.67-0.96Q587.01-2.82 587.01-4.93L587.01-4.93L587.01-4.93Q587.01-9.73 589.25-20.22L589.25-20.22L593.92-44.80L606.91-46.08L600.70-13.70L600.70-13.70Q599.62-8.96 599.62-7.30L599.62-7.30L599.62-7.30Q599.62-3.65 602.24-3.52ZM623.04-3.52L623.04-3.52L623.04-3.52Q621.06 1.28 614.72 1.28L614.72 1.28L614.72 1.28Q611.46 1.28 609.41-0.96L609.41-0.96L609.41-0.96Q607.68-2.94 607.68-4.93L607.68-4.93L607.68-4.93Q607.68-10.11 610.05-20.22L610.05-20.22L612.42-32.64L625.41-33.92L621.50-13.70L621.50-13.70Q620.42-8.96 620.42-7.30L620.42-7.30L620.42-7.30Q620.42-3.65 623.04-3.52ZM613.57-41.54L613.57-41.54L613.57-41.54Q613.57-44.03 615.65-45.38L615.65-45.38L615.65-45.38Q617.73-46.72 620.74-46.72L620.74-46.72L620.74-46.72Q623.74-46.72 625.57-45.38L625.57-45.38L625.57-45.38Q627.39-44.03 627.39-41.54L627.39-41.54L627.39-41.54Q627.39-39.04 625.38-37.76L625.38-37.76L625.38-37.76Q623.36-36.48 620.35-36.48L620.35-36.48L620.35-36.48Q617.34-36.48 615.46-37.76L615.46-37.76L615.46-37.76Q613.57-39.04 613.57-41.54ZM640.80 0.64L640.80 0.64L640.80 0.64Q637.76 0 636.19-0.29L636.19-0.29L636.19-0.29Q634.62-0.58 632.80-0.58L632.80-0.58L632.80-0.58Q630.98-0.58 629.18 0.06L629.18 0.06L629.18 0.06Q628.22-0.51 627.62-1.66L627.62-1.66L627.62-1.66Q627.01-2.82 627.01-4.61L627.01-4.61L627.01-4.61Q627.01-8.38 630.85-11.26L630.85-11.26L647.10-22.98L647.10-22.98Q642.56-24.26 638.43-24.26L638.43-24.26L638.43-24.26Q634.30-24.26 632.83-21.44L632.83-21.44L632.83-21.44Q630.66-24 630.66-28.03L630.66-28.03L630.66-28.03Q630.66-30.72 632.61-32.48L632.61-32.48L632.61-32.48Q634.56-34.24 638.66-34.24L638.66-34.24L638.66-34.24Q640.96-34.24 643.04-33.95L643.04-33.95L643.04-33.95Q645.12-33.66 646.98-33.41L646.98-33.41L650.43-32.90L650.43-32.90Q652.10-32.64 653.79-32.64L653.79-32.64L653.79-32.64Q655.49-32.64 656.77-33.34L656.77-33.34L656.77-33.34Q658.43-31.81 658.43-29.70L658.43-29.70L658.43-29.70Q658.43-26.37 654.34-22.91L654.34-22.91L638.14-10.82L638.14-10.82Q643.14-9.34 645.70-9.34L645.70-9.34L645.70-9.34Q651.07-9.34 653.38-11.90L653.38-11.90L653.38-11.90Q655.17-9.86 655.17-6.30L655.17-6.30L655.17-6.30Q655.17-2.75 652.86-0.74L652.86-0.74L652.86-0.74Q650.56 1.28 646.40 1.28L646.40 1.28L646.40 1.28Q643.84 1.28 640.80 0.64ZM685.76 0.83L681.66 0.70L681.66 0.70Q679.68 0.64 677.60 0.64L677.60 0.64L677.60 0.64Q675.52 0.64 673.47 0.90L673.47 0.90L673.47 0.90Q673.22-0.13 673.22-1.34L673.22-1.34L673.22-1.34Q673.22-3.90 674.66-5.44L674.66-5.44L674.66-5.44Q676.10-6.98 678.34-6.98L678.34-6.98L681.79-6.98L687.17-31.17L687.17-31.17Q685.18-29.18 681.09-29.18L681.09-29.18L681.09-29.18Q679.04-29.18 677.44-31.10L677.44-31.10L677.44-31.10Q675.84-32.90 675.58-35.46L675.58-35.46L675.58-35.46Q685.06-37.12 699.20-43.46L699.20-43.46L701.25-41.02L695.04-6.98L696.64-6.98L696.64-6.98Q700.48-6.98 702.46-7.68L702.46-7.68L702.46-7.68Q703.30-6.27 703.30-3.97L703.30-3.97L703.30-3.97Q703.30-1.66 701.60-0.29L701.60-0.29L701.60-0.29Q699.90 1.09 697.09 1.09L697.09 1.09L697.09 1.09Q691.39 1.09 685.76 0.83L685.76 0.83ZM723.30-1.92L723.30-1.92L723.30-1.92Q721.79-3.58 721.12-6.21L721.12-6.21L721.12-6.21Q720.45-8.83 720.45-13.12L720.45-13.12L720.45-13.12Q720.45-17.41 721.92-21.31L721.92-21.31L721.92-21.31Q723.39-25.22 726.08-28.03L726.08-28.03L726.08-28.03Q731.58-33.92 740.67-33.92L740.67-33.92L740.67-33.92Q743.94-33.92 746.30-32.83L746.30-32.83L757.25-33.92L752.51-8.96L752.51-8.96Q752.32-8.19 752.32-6.78L752.32-6.78L752.32-6.78Q752.32-5.38 753.18-4.48L753.18-4.48L753.18-4.48Q754.05-3.58 755.33-3.46L755.33-3.46L755.33-3.46Q754.69-1.28 752.35 0L752.35 0L752.35 0Q750.02 1.28 747.39 1.28L747.39 1.28L747.39 1.28Q744.77 1.28 743.01 0.29L743.01 0.29L743.01 0.29Q741.25-0.70 740.74-2.37L740.74-2.37L740.74-2.37Q739.71-0.77 737.54 0.26L737.54 0.26L737.54 0.26Q735.36 1.28 732.45 1.28L732.45 1.28L732.45 1.28Q729.54 1.28 727.17 0.51L727.17 0.51L727.17 0.51Q724.80-0.26 723.30-1.92ZM736.80-27.90L736.80-27.90L736.80-27.90Q736.06-26.75 735.42-24.80L735.42-24.80L735.42-24.80Q734.78-22.85 733.73-17.63L733.73-17.63L733.73-17.63Q732.67-12.42 732.67-8.70L732.67-8.70L732.67-8.70Q732.67-4.99 733.25-3.90L733.25-3.90L733.25-3.90Q733.82-2.82 734.85-2.82L734.85-2.82L734.85-2.82Q736.90-2.82 738.40-4.77L738.40-4.77L738.40-4.77Q739.90-6.72 740.48-10.18L740.48-10.18L743.87-28.93L743.87-28.93Q742.53-30.08 740.96-30.08L740.96-30.08L740.96-30.08Q739.39-30.08 738.46-29.57L738.46-29.57L738.46-29.57Q737.54-29.06 736.80-27.90ZM787.78 1.28L787.78 1.28L787.78 1.28Q780.03 1.28 780.03-4.74L780.03-4.74L780.03-4.74Q780.10-6.40 780.61-9.22L780.61-9.22L781.76-15.10L781.76-15.10Q783.49-23.42 783.49-25.28L783.49-25.28L783.49-25.28Q783.49-28.99 781.31-28.99L781.31-28.99L781.31-28.99Q777.66-28.99 775.74-19.46L775.74-19.46L771.97 0L759.10 1.28L765.76-32.70L776.26-33.92L775.23-27.65L775.23-27.65Q778.24-33.92 787.46-33.92L787.46-33.92L787.46-33.92Q791.94-33.92 793.82-32.03L793.82-32.03L793.82-32.03Q795.71-30.14 795.71-25.92L795.71-25.92L795.71-25.92Q795.71-21.95 793.66-12.67L793.66-12.67L793.66-12.67Q792.70-8.51 792.70-6.94L792.70-6.94L792.70-6.94Q792.70-5.38 793.57-4.48L793.57-4.48L793.57-4.48Q794.43-3.58 795.71-3.46L795.71-3.46L795.71-3.46Q795.07-1.28 792.86 0L792.86 0L792.86 0Q790.66 1.28 787.78 1.28ZM814.78 1.28L814.78 1.28L814.78 1.28Q800.70 1.28 800.70-11.97L800.70-11.97L800.70-11.97Q800.70-21.38 805.89-27.46L805.89-27.46L805.89-27.46Q811.39-33.92 820.93-33.92L820.93-33.92L820.93-33.92Q827.84-33.92 831.36-30.72L831.36-30.72L831.36-30.72Q834.88-27.52 834.88-20.80L834.88-20.80L834.88-20.80Q834.88-10.56 829.38-4.61L829.38-4.61L829.38-4.61Q824 1.28 814.78 1.28ZM816.45-26.56L816.45-26.56L816.45-26.56Q815.68-24.83 815.07-22.24L815.07-22.24L815.07-22.24Q814.46-19.65 813.70-15.55L813.70-15.55L813.70-15.55Q812.93-11.46 812.93-6.40L812.93-6.40L812.93-6.40Q812.93-4.74 813.47-3.65L813.47-3.65L813.47-3.65Q814.02-2.56 815.49-2.56L815.49-2.56L815.49-2.56Q816.96-2.56 817.89-3.26L817.89-3.26L817.89-3.26Q818.82-3.97 819.52-5.63L819.52-5.63L819.52-5.63Q820.80-8.58 821.82-14.05L821.82-14.05L821.82-14.05Q822.85-19.52 822.94-21.89L822.94-21.89L822.94-21.89Q823.04-24.26 823.04-26.02L823.04-26.02L823.04-26.02Q823.04-27.78 822.53-28.93L822.53-28.93L822.53-28.93Q822.02-30.08 820.58-30.08L820.58-30.08L820.58-30.08Q819.14-30.08 818.18-29.18L818.18-29.18L818.18-29.18Q817.22-28.29 816.45-26.56ZM877.76-10.82L877.76-10.82L877.76-10.82Q879.36-9.73 879.36-7.33L879.36-7.33L879.36-7.33Q879.36-4.93 878.14-3.39L878.14-3.39L878.14-3.39Q876.93-1.86 874.94-0.83L874.94-0.83L874.94-0.83Q870.85 1.28 866.43 1.28L866.43 1.28L866.43 1.28Q862.02 1.28 859.42 0.32L859.42 0.32L859.42 0.32Q856.83-0.64 855.10-2.43L855.10-2.43L855.10-2.43Q851.71-5.82 851.71-12.03L851.71-12.03L851.71-12.03Q851.71-21.70 856.96-27.58L856.96-27.58L856.96-27.58Q862.59-33.92 872.38-33.92L872.38-33.92L872.38-33.92Q878.46-33.92 881.47-31.36L881.47-31.36L881.47-31.36Q883.71-29.44 883.71-26.30L883.71-26.30L883.71-26.30Q883.71-15.04 864.26-15.04L864.26-15.04L864.26-15.04Q864-13.38 864-11.97L864-11.97L864-11.97Q864-9.02 865.31-7.90L865.31-7.90L865.31-7.90Q866.62-6.78 869.06-6.78L869.06-6.78L869.06-6.78Q871.49-6.78 874.08-7.90L874.08-7.90L874.08-7.90Q876.67-9.02 877.76-10.82ZM864.70-17.79L864.70-17.79L864.70-17.79Q869.25-17.79 871.87-20.61L871.87-20.61L871.87-20.61Q874.50-23.30 874.50-27.58L874.50-27.58L874.50-27.58Q874.50-29.06 873.95-29.86L873.95-29.86L873.95-29.86Q873.41-30.66 872.32-30.66L872.32-30.66L872.32-30.66Q871.23-30.66 870.30-30.24L870.30-30.24L870.30-30.24Q869.38-29.82 868.42-28.42L868.42-28.42L868.42-28.42Q866.05-25.22 864.70-17.79ZM910.91 0.83L906.82 0.70L906.82 0.70Q904.83 0.64 902.75 0.64L902.75 0.64L902.75 0.64Q900.67 0.64 898.62 0.90L898.62 0.90L898.62 0.90Q898.37-0.13 898.37-1.34L898.37-1.34L898.37-1.34Q898.37-3.90 899.81-5.44L899.81-5.44L899.81-5.44Q901.25-6.98 903.49-6.98L903.49-6.98L906.94-6.98L912.32-31.17L912.32-31.17Q910.34-29.18 906.24-29.18L906.24-29.18L906.24-29.18Q904.19-29.18 902.59-31.10L902.59-31.10L902.59-31.10Q900.99-32.90 900.74-35.46L900.74-35.46L900.74-35.46Q910.21-37.12 924.35-43.46L924.35-43.46L926.40-41.02L920.19-6.98L921.79-6.98L921.79-6.98Q925.63-6.98 927.62-7.68L927.62-7.68L927.62-7.68Q928.45-6.27 928.45-3.97L928.45-3.97L928.45-3.97Q928.45-1.66 926.75-0.29L926.75-0.29L926.75-0.29Q925.06 1.09 922.24 1.09L922.24 1.09L922.24 1.09Q916.54 1.09 910.91 0.83L910.91 0.83ZM991.74 1.28L991.74 1.28L991.74 1.28Q984.00 1.28 984.00-4.74L984.00-4.74L984.00-4.74Q984.00-7.36 985.12-12.45L985.12-12.45L985.12-12.45Q986.24-17.54 986.62-19.58L986.62-19.58L986.62-19.58Q987.52-24.26 987.52-25.73L987.52-25.73L987.52-25.73Q987.52-28.99 985.09-28.99L985.09-28.99L985.09-28.99Q983.49-28.99 981.95-26.78L981.95-26.78L981.95-26.78Q980.42-24.58 979.71-20.16L979.71-20.16L975.74 0L963.26 1.28L966.72-16.13L966.72-16.13Q967.30-19.01 967.81-22.27L967.81-22.27L967.81-22.27Q968.32-25.54 968.32-26.05L968.32-26.05L968.32-26.05Q968.32-28.99 966.14-28.99L966.14-28.99L966.14-28.99Q964.67-28.99 963.07-26.82L963.07-26.82L963.07-26.82Q961.47-24.64 960.58-20.16L960.58-20.16L956.67 0L944.06 1.28L950.78-32.64L961.22-33.92L960.13-27.46L960.13-27.46Q961.79-30.91 964.86-32.42L964.86-32.42L964.86-32.42Q967.94-33.92 972.74-33.92L972.74-33.92L972.74-33.92Q975.49-33.92 977.28-32.58L977.28-32.58L977.28-32.58Q979.07-31.23 979.65-29.06L979.65-29.06L979.65-29.06Q980.74-31.30 983.52-32.61L983.52-32.61L983.52-32.61Q986.30-33.92 989.73-33.92L989.73-33.92L989.73-33.92Q993.15-33.92 994.85-33.18L994.85-33.18L994.85-33.18Q996.54-32.45 997.57-31.23L997.57-31.23L997.57-31.23Q999.30-28.99 999.30-24.90L999.30-24.90L999.30-24.90Q999.30-20.86 997.57-12.48L997.57-12.48L997.57-12.48Q996.67-8.38 996.67-6.88L996.67-6.88L996.67-6.88Q996.67-5.38 997.54-4.48L997.54-4.48L997.54-4.48Q998.40-3.58 999.68-3.46L999.68-3.46L999.68-3.46Q999.04-1.28 996.83 0L996.83 0L996.83 0Q994.62 1.28 991.74 1.28ZM1030.53-10.82L1030.53-10.82L1030.53-10.82Q1032.13-9.73 1032.13-7.33L1032.13-7.33L1032.13-7.33Q1032.13-4.93 1030.91-3.39L1030.91-3.39L1030.91-3.39Q1029.70-1.86 1027.71-0.83L1027.71-0.83L1027.71-0.83Q1023.62 1.28 1019.20 1.28L1019.20 1.28L1019.20 1.28Q1014.78 1.28 1012.19 0.32L1012.19 0.32L1012.19 0.32Q1009.60-0.64 1007.87-2.43L1007.87-2.43L1007.87-2.43Q1004.48-5.82 1004.48-12.03L1004.48-12.03L1004.48-12.03Q1004.48-21.70 1009.73-27.58L1009.73-27.58L1009.73-27.58Q1015.36-33.92 1025.15-33.92L1025.15-33.92L1025.15-33.92Q1031.23-33.92 1034.24-31.36L1034.24-31.36L1034.24-31.36Q1036.48-29.44 1036.48-26.30L1036.48-26.30L1036.48-26.30Q1036.48-15.04 1017.02-15.04L1017.02-15.04L1017.02-15.04Q1016.77-13.38 1016.77-11.97L1016.77-11.97L1016.77-11.97Q1016.77-9.02 1018.08-7.90L1018.08-7.90L1018.08-7.90Q1019.39-6.78 1021.82-6.78L1021.82-6.78L1021.82-6.78Q1024.26-6.78 1026.85-7.90L1026.85-7.90L1026.85-7.90Q1029.44-9.02 1030.53-10.82ZM1017.47-17.79L1017.47-17.79L1017.47-17.79Q1022.02-17.79 1024.64-20.61L1024.64-20.61L1024.64-20.61Q1027.26-23.30 1027.26-27.58L1027.26-27.58L1027.26-27.58Q1027.26-29.06 1026.72-29.86L1026.72-29.86L1026.72-29.86Q1026.18-30.66 1025.09-30.66L1025.09-30.66L1025.09-30.66Q1024.00-30.66 1023.07-30.24L1023.07-30.24L1023.07-30.24Q1022.14-29.82 1021.18-28.42L1021.18-28.42L1021.18-28.42Q1018.82-25.22 1017.47-17.79ZM1016.32-36.86L1014.21-40.83L1026.69-49.15L1036.48-40.77L1033.28-36.86L1025.79-41.47L1016.32-36.86ZM1057.79-22.46L1057.79-22.46L1057.79-22.46Q1058.69-24.83 1058.69-26.88L1058.69-26.88L1058.69-26.88Q1058.69-30.66 1055.62-30.66L1055.62-30.66L1055.62-30.66Q1054.02-30.66 1052.70-29.22L1052.70-29.22L1052.70-29.22Q1051.39-27.78 1051.39-25.98L1051.39-25.98L1051.39-25.98Q1051.39-24.70 1052.42-23.68L1052.42-23.68L1052.42-23.68Q1053.89-22.27 1057.66-19.97L1057.66-19.97L1057.66-19.97Q1061.44-17.66 1062.88-15.78L1062.88-15.78L1062.88-15.78Q1064.32-13.89 1064.32-11.30L1064.32-11.30L1064.32-11.30Q1064.32-8.70 1063.07-6.34L1063.07-6.34L1063.07-6.34Q1061.82-3.97 1059.58-2.30L1059.58-2.30L1059.58-2.30Q1054.78 1.28 1047.10 1.28L1047.10 1.28L1047.10 1.28Q1042.94 1.28 1039.74-0.90L1039.74-0.90L1039.74-0.90Q1036.54-3.01 1036.54-5.50L1036.54-5.50L1036.54-5.50Q1036.54-8 1038.37-9.47L1038.37-9.47L1038.37-9.47Q1040.19-10.94 1042.88-10.94L1042.88-10.94L1042.88-10.94Q1045.57-10.94 1047.23-9.92L1047.23-9.92L1047.23-9.92Q1046.40-7.81 1046.40-6.40L1046.40-6.40L1046.40-6.40Q1046.40-2.18 1049.98-2.18L1049.98-2.18L1049.98-2.18Q1051.52-2.18 1052.54-3.14L1052.54-3.14L1052.54-3.14Q1053.57-4.10 1053.57-5.76L1053.57-5.76L1053.57-5.76Q1053.57-9.02 1048.06-12.48L1048.06-12.48L1048.06-12.48Q1043.58-15.42 1042.56-16.58L1042.56-16.58L1042.56-16.58Q1040.83-18.62 1040.83-21.18L1040.83-21.18L1040.83-21.18Q1040.83-23.74 1042.05-26.18L1042.05-26.18L1042.05-26.18Q1043.26-28.61 1045.50-30.34L1045.50-30.34L1045.50-30.34Q1050.18-33.92 1058.30-33.92L1058.30-33.92L1058.30-33.92Q1062.46-33.92 1064.93-32.26L1064.93-32.26L1064.93-32.26Q1067.39-30.59 1067.39-27.78L1067.39-27.78L1067.39-27.78Q1067.39-24.96 1065.70-23.36L1065.70-23.36L1065.70-23.36Q1064.00-21.76 1060.93-21.76L1060.93-21.76L1060.93-21.76Q1058.82-21.76 1057.79-22.46ZM1061.82 11.52L1061.82 11.52L1061.82 11.52Q1070.59 5.57 1075.20-6.53L1075.20-6.53L1075.20-6.53Q1079.81-18.37 1079.81-34.75L1079.81-34.75L1079.81-34.75Q1079.81-39.49 1078.43-43.04L1078.43-43.04L1078.43-43.04Q1077.06-46.59 1073.98-49.92L1073.98-49.92L1073.98-49.92Q1074.11-50.43 1074.82-50.82L1074.82-50.82L1074.82-50.82Q1075.52-51.20 1076.22-51.20L1076.22-51.20L1076.22-51.20Q1078.59-51.20 1080.77-49.28L1080.77-49.28L1080.77-49.28Q1082.94-47.36 1084.61-44.16L1084.61-44.16L1084.61-44.16Q1088.19-37.18 1088.19-27.65L1088.19-27.65L1088.19-27.65Q1088.19-17.92 1084.67-8.45L1084.67-8.45L1084.67-8.45Q1081.28 0.77 1075.97 6.66L1075.97 6.66L1075.97 6.66Q1070.40 12.80 1064.90 12.80L1064.90 12.80L1064.90 12.80Q1062.46 12.80 1061.82 11.52Z" fill="none" stroke="#fff" stroke-width="2.1"></path></g></g></g><style>text {
  font-size: 64px;
  font-family: Arial Black;
  dominant-baseline: central;
  text-anchor: middle;
}</style></svg>